<svg aria-hidden="true" style="position:absolute;width:0;height:0;overflow:hidden" xmlns="http://www.w3.org/2000/svg">
    <defs>
        <symbol id="book" viewBox="0 0 32 32">
            <path fill="#4440f6" style="fill:var(--color1, #4440f6)"
                d="M32 16c0 8.837-7.163 16-16 16S0 24.837 0 16 7.163 0 16 0s16 7.163 16 16z" />
            <path fill="none" stroke="#f4f4f4" style="stroke:var(--color2, #f4f4f4)" stroke-linejoin="round"
                stroke-linecap="round"
                d="M8.5 9.25H13a3.004 3.004 0 0 1 3 3v10.5a2.25 2.25 0 0 0-2.25-2.25H8.5V9.25zM23.5 9.25H19a3.004 3.004 0 0 0-3 3v10.5a2.25 2.25 0 0 1 2.25-2.25h5.25V9.25z" />
        </symbol>
        <symbol id="heart" viewBox="0 0 32 32">
            <path fill="#4440f6" style="fill:var(--color1, #4440f6)"
                d="M32 16c0 8.837-7.163 16-16 16S0 24.837 0 16 7.163 0 16 0s16 7.163 16 16z" />
            <path fill="none" stroke="#f4f4f4" style="stroke:var(--color2, #f4f4f4)" stroke-linejoin="round"
                stroke-linecap="round"
                d="M22.63 10.457a4.111 4.111 0 0 0-4.496-.895 4.1 4.1 0 0 0-1.338.895l-.795.795-.795-.795a4.125 4.125 0 0 0-5.836 0 4.125 4.125 0 0 0 0 5.835l6.63 6.63 6.63-6.63a4.111 4.111 0 0 0 .895-4.496 4.116 4.116 0 0 0-.895-1.338v0z" />
        </symbol>
        <symbol id="home" viewBox="0 0 32 32">
            <path fill="#4440f6" style="fill:var(--color1, #4440f6)"
                d="M32 16c0 8.837-7.163 16-16 16S0 24.837 0 16 7.163 0 16 0s16 7.163 16 16z" />
            <path fill="none" stroke="#f4f4f4" style="stroke:var(--color2, #f4f4f4)" stroke-linejoin="round"
                stroke-linecap="round"
                d="M9.25 13.75 16 8.5l6.75 5.25V22a1.503 1.503 0 0 1-1.5 1.5h-10.5a1.503 1.503 0 0 1-1.5-1.5v-8.25z" />
            <path fill="none" stroke="#f4f4f4" style="stroke:var(--color2, #f4f4f4)" stroke-linejoin="round"
                stroke-linecap="round" d="M13.75 23.5V16h4.5v7.5" />
        </symbol>
        <symbol id="liked" viewBox="0 0 32 32">
            <path fill="#4b48da" style="fill:var(--color3, #4b48da)"
                d="M9.333 4c-3.681 0-6.667 2.955-6.667 6.6 0 2.943 1.167 9.927 12.651 16.987a1.316 1.316 0 0 0 1.366 0c11.484-7.06 12.651-14.044 12.651-16.987 0-3.645-2.985-6.6-6.667-6.6S16 8 16 8s-2.985-4-6.667-4z" />
        </symbol>
        <symbol id="not-liked" viewBox="0 0 32 32">
            <path fill="none" stroke="#4440f7" style="stroke:var(--color4, #4440f7)" stroke-linejoin="round"
                stroke-linecap="round" stroke-width="2"
                d="M9.333 4c-3.681 0-6.667 2.955-6.667 6.6 0 2.943 1.167 9.927 12.651 16.987a1.316 1.316 0 0 0 1.366 0c11.484-7.06 12.651-14.044 12.651-16.987 0-3.645-2.985-6.6-6.667-6.6S16 8 16 8s-2.985-4-6.667-4z" />
        </symbol>
        <symbol id="arrow-up" viewBox="0 0 32 32">
            <path fill="#4440f6" style="fill:var(--color1, #4440f6)"
                d="M3.76 25.143 0 21.664 16 6.858l16 14.806-3.76 3.479L16 13.841 3.76 25.143z" />
        </symbol>
        <symbol id="arrow-dwn" viewBox="0 0 32 32">
            <path fill="#4440f6" style="fill:var(--color1, #4440f6)"
                d="M3.76 9.143 0 12.622l16 14.806 16-14.806-3.76-3.479L16 20.445 3.76 9.143z" />
        </symbol>
        <symbol id="calendar" viewBox="0 0 32 32">
            <path fill="#4440f7" style="fill:var(--color4, #4440f7)"
                d="M22.667 4H28a1.335 1.335 0 0 1 1.334 1.334v21.333A1.335 1.335 0 0 1 28 28.001H4a1.33 1.33 0 0 1-1.333-1.334V5.334A1.333 1.333 0 0 1 4 4h5.333V1.333H12V4h8V1.333h2.667V4zm4 10.667H5.334v10.667h21.333V14.667zm-6.667-8h-8v2.667H9.333V6.667h-4V12h21.333V6.667h-4v2.667h-2.667V6.667zM8 17.333h2.667V20H8v-2.667zm6.667 0h2.667V20h-2.667v-2.667zm6.666 0H24V20h-2.667v-2.667z" />
        </symbol>
        <symbol id="search" viewBox="0 0 32 32">
            <path
                d="M13.333 23.6c2.367 0 4.665-.753 6.529-2.138l5.861 5.568 1.885-1.791-5.861-5.568a9.755 9.755 0 0 0 2.252-6.204c0-5.587-4.785-10.133-10.667-10.133S2.665 7.88 2.665 13.467c0 5.587 4.785 10.133 10.667 10.133zm0-17.733c4.412 0 8 3.409 8 7.6s-3.588 7.6-8 7.6-8-3.409-8-7.6 3.588-7.6 8-7.6z" />
        </symbol>
        <symbol id="moon" viewBox="0 0 32 32">
            <path fill="none" stroke="#5f6775" style="stroke:var(--color1, #5f6775)" stroke-linejoin="round"
                stroke-linecap="round" stroke-width="2.286"
                d="M28 17.053a11.994 11.994 0 0 1-7.873 10.182A12.003 12.003 0 0 1 4.338 18.56 12.002 12.002 0 0 1 14.946 3.999 9.335 9.335 0 0 0 28 17.053v0z" />
        </symbol>
        <symbol id="sun" viewBox="0 0 32 32">
            <path fill="none" stroke="#4b48db" style="stroke:var(--color2, #4b48db)" stroke-linejoin="round"
                stroke-linecap="round" stroke-width="2.286"
                d="M16 1.778v2.586m0 23.272v2.586M5.941 5.941l1.836 1.836m16.446 16.446 1.836 1.836M1.778 16h2.586m23.272 0h2.586M5.941 26.059l1.836-1.836M24.223 7.777l1.836-1.836M22.465 16a6.465 6.465 0 1 1-12.93 0 6.465 6.465 0 0 1 12.93 0z" />
        </symbol>
        <symbol id="burger" viewBox="0 0 32 32">
            <path stroke-linejoin="round" stroke-linecap="round" stroke-width="2.667" d="M4 16h24M4 8h24M4 24h24" />
        </symbol>
        <symbol id="cross" viewBox="0 0 32 32">
            <path stroke-linejoin="round" stroke-linecap="round" stroke-width="2.667" d="M24 8 8 24M8 8l16 16" />
        </symbol>
        <symbol id="location" viewBox="0 0 19 25"> 
            <path d="M9.50001 0.6875C7.03936 0.690403 4.68032 1.66918 2.94038 3.40912C1.20044 5.14906 0.221663 7.5081 0.21876 9.96875C0.215813 11.9796 0.87265 13.9359 2.08851 15.5375C2.08851 15.5375 2.34163 15.8708 2.38298 15.9189L9.50001 24.3125L16.6204 15.9147C16.6575 15.8699 16.9115 15.5375 16.9115 15.5375L16.9124 15.535C18.1276 13.934 18.7841 11.9787 18.7813 9.96875C18.7784 7.5081 17.7996 5.14906 16.0596 3.40912C14.3197 1.66918 11.9607 0.690403 9.50001 0.6875ZM9.50001 13.3438C8.8325 13.3438 8.17998 13.1458 7.62496 12.775C7.06994 12.4041 6.63736 11.877 6.38192 11.2603C6.12647 10.6436 6.05963 9.96501 6.18986 9.31032C6.32008 8.65563 6.64152 8.05427 7.11352 7.58226C7.58553 7.11026 8.18689 6.78882 8.84158 6.6586C9.49627 6.52837 10.1749 6.59521 10.7916 6.85066C11.4083 7.1061 11.9354 7.53868 12.3062 8.0937C12.6771 8.64872 12.875 9.30124 12.875 9.96875C12.8739 10.8635 12.518 11.7213 11.8853 12.354C11.2526 12.9867 10.3948 13.3426 9.50001 13.3438Z" fill="white"/>
        </symbol>
    </defs>
</svg>